<svg id="Layer_1" data-name="Layer 1" xmlns="http://www.w3.org/2000/svg" viewBox="0 0 50 150"><defs><style>.cls-1{fill:none;}.cls-1,.cls-2{stroke:#221f1f;stroke-linecap:round;stroke-linejoin:round;}.cls-2{fill:#221f1f;}</style></defs><line class="cls-1" x1="21.21" y1="65.15" x2="25" y2="75.87"/><polygon class="cls-2" points="24.52 100.85 26.3 147.62 23.98 147.62 23.59 131.65 23.16 114.38 23.55 91.79 23.82 89.2 26.95 57.74 24.52 100.85"/><line class="cls-1" x1="30.66" y1="64.26" x2="26.28" y2="69.73"/><path class="cls-1" d="M12.66,78.94c2.08,1.61,3.35,3.74,5.11,5.3.49.43,2.18,3,2.68,3.42,1.5,1.33,2.29.55,3.79,1.88"/><polyline class="cls-1" points="12.66 83.92 15.72 84.55 18.2 84.62"/><polyline class="cls-1" points="24.91 103.83 29.12 99.58 44.19 90.94"/><polyline class="cls-1" points="36.87 95.52 39.85 97.15 41.89 96.89"/><polyline class="cls-1" points="36.87 87.66 35.17 92.43 31.85 97.66"/><line class="cls-1" x1="8.45" y1="118.26" x2="23.74" y2="131.78"/><polyline class="cls-1" points="5.89 124 11.21 124.71 15.23 124.25"/><polyline class="cls-1" points="25.94 126.13 37.3 120.72 41.13 119.72 42.45 117.07"/><polyline class="cls-1" points="35.84 121.42 42 121.85 44.57 120.94"/><polyline class="cls-1" points="32.96 122.38 35.64 119.28 37.09 117.07"/></svg>