<svg id="Layer_1" data-name="Layer 1" xmlns="http://www.w3.org/2000/svg" viewBox="0 0 50 150"><defs><style>.cls-1,.cls-3{fill:none;}.cls-1,.cls-2,.cls-3{stroke:#221f1f;stroke-linecap:round;stroke-linejoin:round;}.cls-2{fill:#221f1f;}.cls-3{stroke-width:0.75px;}</style></defs><polyline class="cls-1" points="20.62 62.47 21.98 65.92 23.33 69.15 24.11 72.38"/><polyline class="cls-1" points="30.19 62.47 28.96 64.38 26.96 65.92 25.39 67.94"/><path class="cls-1" d="M11.74,76.37a39.15,39.15,0,0,0,5.11,5.3c.49.43,2.13,2.62,2.62,3,1.5,1.34,2.64.74,3.86,2.25"/><polyline class="cls-1" points="11.74 81.35 14.81 81.98 17.29 82.05"/><polyline class="cls-1" points="23.98 101.15 28.45 97.06 36.87 93.02 43.47 88.13"/><polyline class="cls-1" points="36.37 93.32 39.68 94.14 41.17 93.89"/><polyline class="cls-1" points="35.55 85.79 33.62 90.94 31.78 95.46"/><polyline class="cls-1" points="25 123.57 36.15 118.13 41.34 116.34 42.19 114.68"/><polyline class="cls-1" points="34.9 119.21 41.06 119.64 43.64 118.72"/><polyline class="cls-1" points="32.03 120.17 34.7 117.07 36.15 114.85"/><polyline class="cls-1" points="8.62 116 12.74 119.96 16.19 122.04 18.87 124.68"/><polyline class="cls-1" points="5.85 121.66 11.72 121.87 14.49 121.36"/><path class="cls-2" d="M24.45,132.26,25,132,24,111.06l0-16.21.16-9.15,1.58-24.34.21-5.83c-.69,6.77-2.28,20-2.89,29.12-.95,14.14-1.21,23.28-.85,27.44.5,5.75.42,10.67.85,14l.85,1.36Z"/><polygon class="cls-1" points="24.04 147.06 24.93 146.43 25.1 147.06 25.48 147.62 24.55 147.62 24.04 147.06"/><polygon class="cls-1" points="20.53 127.79 21.17 128.04 20.85 127.53 20.53 127.79"/><polygon class="cls-1" points="23.09 132.77 23.09 133.53 23.47 132.77 23.09 132.77"/><polygon class="cls-1" points="23.94 135.36 24.45 135.7 24.45 134.85 25 134.47 23.94 135.36"/><path class="cls-1" d="M23.47,137.7h0Z"/><path class="cls-1" d="M24.47,139.4l.19.17Z"/><polygon class="cls-1" points="26.53 147.64 26.75 147.64 26.64 147.3 26.53 147.64"/><path class="cls-3" d="M27.66,147.76h0Z"/><polygon class="cls-3" points="22.9 147.36 23.32 147.75 23.19 147.36 22.9 147.36"/></svg>