<svg id="Layer_1" data-name="Layer 1" xmlns="http://www.w3.org/2000/svg" viewBox="0 0 50 150"><defs><style>.cls-1{fill:#559b45;stroke:#221f1f;stroke-linecap:round;stroke-linejoin:round;}</style></defs><path class="cls-1" d="M23.85,140.34v6.85h.64v-6.85h.85v6.85h.72v-6.85a3,3,0,0,0,3.32-2.68,7.4,7.4,0,0,0,6.85.64c2.34-1.24,2.34-4.85,1.41-6.77,3.36.09,7.36-3.14,7.49-6.21s-2.51-4.91-3.24-5.41c.68-1,1.74-2.31,1.62-3.6A2.88,2.88,0,0,0,42,114c3.79-.89,6.51-7.15,5.83-10.55-.58-2.93-4-2.41-4.85-2.51,1.53-.81,2.82-3,1.91-6.72-.62-2.63-1.4-4.47-5.4-5.32a3.71,3.71,0,0,0,2.05-4.51,3.31,3.31,0,0,0-4.35-2,3.23,3.23,0,0,0,0-2.73A3.32,3.32,0,0,0,35.85,78c4.09-2.51,3.35-5,3.49-8,.21-4.72-4-6.53-8-6.68,1.42-1,2.2-2.18,1.82-3.73-.54-2.23-2.58-3.14-4.5-3.5,2-2.3,3.24-4.22,2.3-5.36-1.41-1.71-3.49.2-3.7.29.25-3.61-.43-7.83-1.79-7.83-1.07,0-1,1.39-1.62,4.22a1.77,1.77,0,0,0-1.1.35c-1.12.92-.81,2.92-.52,5.31a2.52,2.52,0,0,0-2.59,1.66c-.81,1.91,0,3,1.45,3.83a3.4,3.4,0,0,0-2.47,3.06,3.09,3.09,0,0,0,.85,2.08c-2.09.26-3,2-3.36,3.71-.6,2.68.8,3.69,3.27,5.36a1.7,1.7,0,0,0-.76,1.74,3.51,3.51,0,0,0-3.79.85c-1.47,1.41-3.06,3.62-1.36,5.92-1.79.47-4.2,1.42-4.93,3.26-.62,1.58-.08,2.94,1.14,4.23A9.81,9.81,0,0,0,4.92,95c-.64,2.87.88,5.55,3.36,7.24a2.32,2.32,0,0,0-1.36,1.89,3.2,3.2,0,0,0,1.23,2.91c-.2,0-2.34-.09-3.15,1.75a5.26,5.26,0,0,0,2.21,6.13c-2.21,1.1-3.7,2.63-3.74,4.85-.06,3.08,2.13,5.36,6.51,6.93a5.85,5.85,0,0,0,.89,7.19c2.94,2.81,4.58,2.18,6.85,1a5.47,5.47,0,0,0,2,3.76A7.59,7.59,0,0,0,23.85,140.34Z"/></svg>