<svg id="Layer_1" data-name="Layer 1" xmlns="http://www.w3.org/2000/svg" viewBox="0 0 50 150"><defs><style>.cls-1{fill:none;}.cls-1,.cls-2{stroke:#221f1f;stroke-linecap:round;stroke-linejoin:round;}.cls-2{fill:#221f1f;}</style></defs><polyline class="cls-1" points="21.75 63.75 23.11 67.19 24.49 69.49 25.43 73.28"/><polyline class="cls-1" points="30.91 64.2 29.89 65.32 28.15 66.6 26.52 68.08"/><path class="cls-1" d="M12.49,77.14a39.7,39.7,0,0,0,5.32,5.3c.49.44,1.91,2.62,2.41,3.06,1.5,1.33,2.24.74,3.46,2.25"/><polyline class="cls-1" points="12.49 82.13 15.56 82.76 18.03 82.82"/><polyline class="cls-1" points="24.96 102.34 31.6 96.98 38.23 93.66 43.38 89.66"/><polyline class="cls-1" points="37.63 94.49 40.91 95.57 42.43 95.57"/><polyline class="cls-1" points="36.81 86.96 35.26 91.87 32.92 96.31"/><polygon class="cls-2" points="27.04 57.4 24.15 81.28 23.09 101.96 23.09 114 23.68 115.23 24.11 117.96 24.28 116.3 24.79 116.51 25.38 118.55 24.61 99.58 25.16 79.74 27.04 57.4"/><polygon class="cls-2" points="23.38 147.7 24.19 147.23 23.79 146.38 24.19 146 24.53 145.23 25.38 145.45 25.77 144.64 25.77 145.57 26.28 146.17 26.28 146.72 27.72 147.02 27.72 147.45 28.53 147.7 22.11 147.7 23.38 147.7"/><path class="cls-2" d="M29.51,123.49l1.19-.34Z"/><path class="cls-2" d="M42.7,116.21v0Z"/><path class="cls-2" d="M41,113.23h0Z"/><polygon class="cls-2" points="38.15 118.55 38.36 118.85 38.36 118.55 38.15 118.55"/><path class="cls-2" d="M40.07,117.33h0Z"/><path class="cls-2" d="M30.11,147.7h0Z"/><path class="cls-2" d="M24.56,138.78l.16.12Z"/><polygon class="cls-2" points="24.85 137.4 25.06 137.4 24.96 137.25 24.85 137.4"/><path class="cls-2" d="M23.57,137l-.16-.16Z"/><polygon class="cls-2" points="24.64 131.75 24.85 131.98 24.96 131.75 24.64 131.75"/><path class="cls-2" d="M17.35,126.27h0Z"/><path class="cls-2" d="M16.71,123v0Z"/><path class="cls-2" d="M17.48,123.15l.41.17Z"/><path class="cls-2" d="M22.65,133.61h0Z"/><path class="cls-2" d="M22.2,131.12h0Z"/><path class="cls-2" d="M24.5,122.47v0Z"/><path class="cls-2" d="M24.64,126.39h0Z"/><path class="cls-2" d="M36.91,120.59v0Z"/><path class="cls-2" d="M14.38,121.48l.19.16Z"/></svg>