<svg id="Layer_1" data-name="Layer 1" xmlns="http://www.w3.org/2000/svg" viewBox="0 0 50 150"><defs><style>.cls-1{fill:#559b45;stroke:#221f1f;stroke-linecap:round;stroke-linejoin:round;}</style></defs><path class="cls-1" d="M23.83,138.37v8.72h.57v-8.72H25v8.72h.74v-8.72a9.3,9.3,0,0,0,3.32-2.05,4.65,4.65,0,0,0,1.15-1.71c2.59,1.24,5,1.68,7.63-1.15a7.35,7.35,0,0,0,1.79-7.09,2.66,2.66,0,0,0,1.4-2.49,4.09,4.09,0,0,0-1.66-3.16c.32-.23,2.49-.57,2.68-4.27a6,6,0,0,0-.95-3.29c1.69-.06,2.19-4.22,1.75-5.68-.63-2.06-4.63-3.58-5.14-4.25,2.73-2.51,4.6-4.33,3.33-8.09-.89-2.6-2-3.75-4-4.45,1.21-2.63,1.88-5,.67-7a5.43,5.43,0,0,0-3.83-2.36,2.15,2.15,0,0,0,.32-2.84,1.78,1.78,0,0,0-2.1-.76c2.24-3.18,2.86-6.56,1.72-8.72a4.82,4.82,0,0,0-5.36-2.36c.76-2,.75-4.19.06-4.51-.89-.4-1.35.39-2.33,1.38.19-4.85-.22-8.84-1.25-8.84S23,59.41,23.83,62a1.73,1.73,0,0,0-2,.6c-.87,1.41.35,4.44,1.05,6.74-1.79-.54-3.77-.29-4.28,1.12-.44,1.24.69,2.36,1.88,3.86A6.2,6.2,0,0,0,17,84.37a3.93,3.93,0,0,0-2.39,1.76,3.73,3.73,0,0,0,.41,3.6,7.49,7.49,0,0,0-6.06,5c-1,3.1.19,7.31,5.14,9.86a3.56,3.56,0,0,0-2,2.05,3.5,3.5,0,0,0,.19,2.68c-1.71.54-3,1.36-3.38,3-.47,2.2,1.12,4.82,3.35,6.09a2.6,2.6,0,0,0-2.55,2.06c-.28,1.57.06,3.78,1.15,4.74a9.48,9.48,0,0,0,2.32,4.07c.87.81,2.69.16,3.1,0a2.46,2.46,0,0,0,.45,2.37c.54.55,1.19.3,1.85-.13a6.77,6.77,0,0,0,.73,4.43C20.26,137.51,23.56,138.36,23.83,138.37Z"/></svg>