<svg id="Layer_1" data-name="Layer 1" xmlns="http://www.w3.org/2000/svg" viewBox="0 0 50 150"><defs><style>.cls-1{fill:#71ba56;stroke:#221f1f;stroke-linecap:round;stroke-linejoin:round;}</style></defs><path class="cls-1" d="M24.64,137.79l-.11,9.49h.83l0-9.54c2-.32,3.9-.64,4.45-2.46.49-1.62-.06-3.45-1.66-5.37,1.63-.81,2.41-1.77,2.2-3.46a6.18,6.18,0,0,0-2.2-3.94,1.44,1.44,0,0,0,1.21-1.72,1.42,1.42,0,0,0-1.47-1,3.65,3.65,0,0,0-1.08-7c1.08-1,1.49-2.06.7-2.74a1.67,1.67,0,0,0-1.66,0c.19-1.7-.66-4.51-1.64-4.51-1.36,0-1.06,3.66-.91,6.87-.92.4-2.7.45-3.43,2.45-.9,2.5,1.06,4.67,2.05,5.4-.11,0-2.34,0-2.34,1.79,0,1.37,1.09,2.8,2.16,2.84a5.54,5.54,0,0,0-3.1,5.2,4.16,4.16,0,0,0,3.1,4.05c-.21.16-1,1.5-.55,2.27S22.87,137.49,24.64,137.79Z"/></svg>