<svg id="Layer_1" data-name="Layer 1" xmlns="http://www.w3.org/2000/svg" viewBox="0 0 50 150"><defs><style>.cls-1{fill:#559b45;stroke:#221f1f;stroke-linecap:round;stroke-linejoin:round;}</style></defs><path class="cls-1" d="M24.11,139v8.3h.65V139h.57v8.3h.48V139l4.72-3.77c1.6,1.18,2.84,1.48,5.46,0,1.93-1.09,2.9-4.31,2.78-5.58,2.36-.48,3.06-1.24,3.6-4.28a5.79,5.79,0,0,0-1.15-4.47,5,5,0,0,0,1.61-4,3.13,3.13,0,0,0-1.64-2.56c2.94-.83,5-5.59,4.34-8.3s-3-3.12-5.26-3.16c.16-.17,3.26-3.48,2.1-7.82a8.42,8.42,0,0,0-4.47-5.26A5.76,5.76,0,0,0,39,83.22c-1.43-3.06-3.73-2.48-4-2.52a2.1,2.1,0,0,0-1.85-3.64c2.17-2.06,3.74-4.82,2.39-7.88C34.59,67,32.1,65.53,29,65.06c1.12-1.93,1.84-4.75,1-5.43-.66-.54-1.91-.05-3.21.74.09-3.7,0-10.21-1.47-10.21-1.28,0-3.32,4.6-1.76,10.53a3,3,0,0,0-2.63.84c-1.13,1.39-.27,3.82,1.45,6.5-1.49-.54-3.28-1-4,1.09-.53,1.61-.22,4.24,1.5,4.66-.92.63-3.69,2.56-4.62,4.5-1.69,3.51.29,5.24.51,5.65a3.76,3.76,0,0,0-2.43,1.5,3.81,3.81,0,0,0-.19,3.89c-2.9,0-6.22,4.4-6.06,7.24a9.44,9.44,0,0,0,5.71,8,2.36,2.36,0,0,0-2,1.53,2.33,2.33,0,0,0,.64,2.49c.13.07-2.49-.08-3.57,2.12a6.39,6.39,0,0,0,1.53,6.85A5.33,5.33,0,0,0,7.11,123a3.7,3.7,0,0,0,3.32,3.25c-.13,1.79-.07,3.83,1.31,5s3.31.68,5,.07a9.48,9.48,0,0,0,2.52,5.49A7.78,7.78,0,0,0,24.11,139Z"/></svg>