<svg id="Layer_1" data-name="Layer 1" xmlns="http://www.w3.org/2000/svg" viewBox="0 0 50 150"><defs><style>.cls-1{fill:#62b148;stroke:#221f1f;stroke-linecap:round;stroke-linejoin:round;}</style></defs><path class="cls-1" d="M24.64,133.82v13.85h.83l.07-13.85a3.09,3.09,0,0,0,1.78-1.15,3.2,3.2,0,0,0,.58-2.36c2.17-.57,4.05-2,4.08-3.06a2.37,2.37,0,0,0-.89-2,2,2,0,0,0,1.53-2,2,2,0,0,0-1.53-1.85c1.95-.83,3.76-2.06,3.89-6,0-1.21-.67-5.45-4.34-6,2.18-1,2.36-3.71,2-5.56-.44-2.58-2.85-4.2-5.23-4.54a1.88,1.88,0,0,0,.45-1.91A1.92,1.92,0,0,0,26.11,96C29,94.89,30.05,92.81,29,91.34c-.86-1.18-2.11-1-4.34-.16.19-5.93-.16-8.29-1.59-8.29-1.22,0-2,2.84-1.54,5.29-.53-.05-3.05-.82-3.83,1-1.11,2.65.1,4.74,3.64,7.27-3.1.38-5.54,1.71-6.32,4.34-1.24,4.22,1.22,7,5.68,9.51a2.65,2.65,0,0,0-2.29,2,2.71,2.71,0,0,0,2.23,3.07c-1.72.09-4.6-.42-5.33,2.07-.82,2.77,1.34,4.18,3.61,5.46-1.83.64-2.74,1.81-2.72,3,0,1.54,2.27,3.32,5.46,3.51a3.59,3.59,0,0,0,1,2.94A5,5,0,0,0,24.64,133.82Z"/></svg>