<svg id="Layer_1" data-name="Layer 1" xmlns="http://www.w3.org/2000/svg" viewBox="0 0 50 150"><defs><style>.cls-1{fill:#221f1f;stroke:#221f1f;stroke-linecap:round;stroke-linejoin:round;}</style></defs><path class="cls-1" d="M18.3,147.21l1.53-.51L22,144.6c1.76-2.08,2.34-2.6,3.1-2.59,1.65,0,2.1,1.09,3.16,2.46l1.59,1.72,3.26,1Z"/><polygon class="cls-1" points="16.83 147.37 16.06 147.37 16.45 147.05 16.83 147.37"/><polygon class="cls-1" points="23.75 140.29 24.2 140.51 24.81 139.65 23.75 140.29"/><polygon class="cls-1" points="25.35 136.17 25.54 136.94 26.11 136.33 25.35 136.17"/><path class="cls-1" d="M25.73,134.41l.2.26Z"/><polygon class="cls-1" points="24.81 130.62 24.81 131.03 25.83 130.2 24.81 130.62"/><polygon class="cls-1" points="24.01 128.35 24.28 128.35 24.15 128.03 24.01 128.35"/><polygon class="cls-1" points="24.81 124.9 24.81 125.51 25.32 125.51 25 124.9 24.81 124.9"/><path class="cls-1" d="M25.06,121.71l.26.35Z"/><path class="cls-1" d="M24.46,119.83h0Z"/><path class="cls-1" d="M25.19,114.56l.13.2Z"/></svg>