<svg id="Layer_1" data-name="Layer 1" xmlns="http://www.w3.org/2000/svg" viewBox="0 0 50 150"><defs><style>.cls-1{fill:#4c8a40;stroke:#221f1f;}.cls-1,.cls-2{stroke-linecap:round;stroke-linejoin:round;}.cls-2{fill:none;stroke:#e88227;stroke-width:1.01px;}</style></defs><path class="cls-1" d="M23.92,149.74h1l-.46-5.59c0-.14.9-.19,1-.22s-.27,5.81-.27,5.81.93,0,1,0,0-6,.07-6.07a5.12,5.12,0,0,0,2.65-2.44A5.73,5.73,0,0,0,35.73,143c2.82-1.19,3.35-4.85,3.17-7.79a12.67,12.67,0,0,0,4-1,5.67,5.67,0,0,0,0-10,4.16,4.16,0,0,0,2-4,4.28,4.28,0,0,0-2-3c.6-.22,4.93-1.81,5.79-6.06.62-3,.65-6.6-1.79-7.72a4.19,4.19,0,0,0-3-.22,11.51,11.51,0,0,0,.19-7.86,4.49,4.49,0,0,0-3.19-3.14,4.38,4.38,0,0,0,1.47-6.11c-.67-.9-1.87-1.27-3.47-.89a3.21,3.21,0,0,0,.18-2.53c-.39-.69-1.36-.55-2.18-.47.88-.58,3.74-2,4-5,.23-2.51.9-7.22-2.13-9.94a8.94,8.94,0,0,0-6.87-2.06,3.37,3.37,0,0,0-2-6c.12-.08,2.43-2.64,2.26-4.61A2.93,2.93,0,0,0,30.88,52c-1.15-.83-2.5-.11-2.77-.09.84-.19,1.5-1.69,1.24-3.16a1.73,1.73,0,0,0-2.56-1c-.79-2.47.61-6.63-1.39-6.62-2.5.2-1.92,5.61-1.92,7.61-.46.08-1.1-.42-1.73.35-1,1.21-.41,3.25.16,5.74a2.34,2.34,0,0,0-3,1.21,5.48,5.48,0,0,0,1,6.15A2.13,2.13,0,0,0,18.21,64a3.22,3.22,0,0,0,.69,3.26c-1.56-.47-2.51-1-3.66.93a4.62,4.62,0,0,0-.7,4c.82,1.93,3.17,3,3.67,3.19a4.07,4.07,0,0,0-1.31,1.87,6.2,6.2,0,0,0-.09,2.22,4.17,4.17,0,0,0-3.67,1.08,4.11,4.11,0,0,0-1.24,4.7,4.45,4.45,0,0,0-5,2c-1.09,2,.27,5.84,1.38,5.6a5.52,5.52,0,0,0-4.69,4.93c-.51,4.7,1.63,6.65,4.5,7.82-1.27.57-2.26,1.43-2.19,2.65a3.06,3.06,0,0,0,1,2,3.88,3.88,0,0,0-3.66,3.05,4.11,4.11,0,0,0,3.66,4.95,7.11,7.11,0,0,0-5,6,4.81,4.81,0,0,0,1.66,4,8.66,8.66,0,0,0,6,1.53,9.28,9.28,0,0,0-1.69,3.42c-.6,1.88-.51,4.49,1.09,5.64,2.18,1.57,6.83,1,8.91.36a4.62,4.62,0,0,0,1.68,3.5A8.17,8.17,0,0,0,23.76,144C24.14,144,23.79,149.75,23.92,149.74Z"/><path class="cls-2" d="M21.41,21.58c.25,3.48,0,8.79,2.27,9.3,4,.89,6.7-.16,8.82,2.11,3.56,3.8,1.86,5.5-.57,11.49a33.6,33.6,0,0,0-2.42,12.3c-.13,2.54-1.12,13.62,3,24.84,2.74,7.5,5.33,8.5,6.56,8.74a6.61,6.61,0,0,0,4.61-1c.3.82.78,2,1.45,3.48C47.51,97.86,48.75,98,49,100c.45,3.54-.11,5.55-4.69,9.88-1.46,1.37-1.54,3.72-2,6.15-.28,1.43-1.82,2-2.51,2.42-2,.49-8.33-5.26-12-5.09-7.36.32-14.5,4.82-15.46,5.74-3.24,2.35-7.09.14-7.69-1-2.18-4.37-3.23-17.57-2.75-23.71.32-4.13,4.76-5.76,5.91-10.28C9.11,79,5.8,77.58,5,71.18c-.14-1.08.68-7.22,5.34-10.11a9.91,9.91,0,0,1,3.4-1.3c.57,1,1.92,3,3.56,3,2.32-.08,4.14-4.37,4.53-7.77.53-4.62-1.69-6.6-3.08-12.71-.57-2.53-1.94-6.55-.72-11Z"/><path class="cls-2" d="M12.59,51.28c.42.35-.17,2.07-.73,2.1-.36,0-.93-.67-.72-1.37S12.31,51,12.59,51.28Z"/><path class="cls-2" d="M42.29,78.87C41.05,79,40,83,41.08,83.81c.68.5,2.63-.07,3.15-1.62C44.82,80.44,43.16,78.76,42.29,78.87Z"/></svg>