<svg id="Layer_1" data-name="Layer 1" xmlns="http://www.w3.org/2000/svg" viewBox="0 0 50 150"><defs><style>.cls-1{fill:#4c8a40;stroke:#221f1f;}.cls-1,.cls-2{stroke-linecap:round;stroke-linejoin:round;}.cls-2{fill:none;stroke:#e88227;stroke-width:0.96px;}</style></defs><path class="cls-1" d="M23.92,149.74h1l-.46-5.59c0-.14.9-.19,1-.22s-.27,5.81-.27,5.81.93,0,1,0,0-6,.07-6.07a5.12,5.12,0,0,0,2.65-2.44A5.73,5.73,0,0,0,35.73,143c2.82-1.19,3.35-4.85,3.17-7.79a12.67,12.67,0,0,0,4-1,5.67,5.67,0,0,0,0-10,4.16,4.16,0,0,0,2-4,4.28,4.28,0,0,0-2-3c.6-.22,4.93-1.81,5.79-6.06.62-3,.65-6.6-1.79-7.72a4.19,4.19,0,0,0-3-.22,11.51,11.51,0,0,0,.19-7.86,4.49,4.49,0,0,0-3.19-3.14,4.38,4.38,0,0,0,1.47-6.11c-.67-.9-1.87-1.27-3.47-.89a3.21,3.21,0,0,0,.18-2.53c-.39-.69-1.36-.55-2.18-.47.88-.58,3.74-2,4-5,.23-2.51.9-7.22-2.13-9.94a8.94,8.94,0,0,0-6.87-2.06,3.37,3.37,0,0,0-2-6c.12-.08,2.43-2.64,2.26-4.61A2.93,2.93,0,0,0,30.88,52c-1.15-.83-2.5-.11-2.77-.09.84-.19,1.5-1.69,1.24-3.16a1.73,1.73,0,0,0-2.56-1c-.79-2.47.61-6.63-1.39-6.62-2.5.2-1.92,5.61-1.92,7.61-.46.08-1.1-.42-1.73.35-1,1.21-.41,3.25.16,5.74a2.34,2.34,0,0,0-3,1.21,5.48,5.48,0,0,0,1,6.15A2.13,2.13,0,0,0,18.21,64a3.22,3.22,0,0,0,.69,3.26c-1.56-.47-2.51-1-3.66.93a4.62,4.62,0,0,0-.7,4c.82,1.93,3.17,3,3.67,3.19a4.07,4.07,0,0,0-1.31,1.87,6.2,6.2,0,0,0-.09,2.22,4.17,4.17,0,0,0-3.67,1.08,4.11,4.11,0,0,0-1.24,4.7,4.45,4.45,0,0,0-5,2c-1.09,2,.27,5.84,1.38,5.6a5.52,5.52,0,0,0-4.69,4.93c-.51,4.7,1.63,6.65,4.5,7.82-1.27.57-2.26,1.43-2.19,2.65a3.06,3.06,0,0,0,1,2,3.88,3.88,0,0,0-3.66,3.05,4.11,4.11,0,0,0,3.66,4.95,7.11,7.11,0,0,0-5,6,4.81,4.81,0,0,0,1.66,4,8.66,8.66,0,0,0,6,1.53,9.28,9.28,0,0,0-1.69,3.42c-.6,1.88-.51,4.49,1.09,5.64,2.18,1.57,6.83,1,8.91.36a4.62,4.62,0,0,0,1.68,3.5A8.17,8.17,0,0,0,23.76,144C24.14,144,23.79,149.75,23.92,149.74Z"/><path class="cls-2" d="M28.82,22.16c1.71,9-1.95,11.08-4.37,12.07s-4.31,1.32-6.22,4.23c-2,3.07-.92,7.92-.47,10.62a50.85,50.85,0,0,1,1.31,17.85,50.71,50.71,0,0,1-2.45,11.14c-1.26,2.56-3,5.22-4.75,5.07-1.36-.11-1.26-1.67-2.33-1.52-1.54.22-3,3.84-3.24,6.6-.45,5.41,2.22,6.42.82,9.5C5,102.4,2.52,101,1.06,106.56.64,108.18.68,111,5,115.07c2.31,2.17,1,2.54,3.17,5.12,3.38,3.93,12,4.87,15.29,4.67,10.27-.64,18.42-6.51,20-9.13A6.39,6.39,0,0,0,44.7,111c-.55-2.58-1.72-5.12-1.23-8.29.8-5.16,3.6-6.43,5.34-10.68,1.66-5.29-1.08-7.19-2.06-8.38-1.51-1.82-3-2.12-4.1-4.91-1.76-4.58,1.5-4.77-3.22-8.29-.74-.55-1.3,1.32-2.67,1.58-2.42.44-5.28-4.17-6.37-6.22-3.49-6.59-3.83-11.5-4.09-16.14-.09-1.7-1.19-9.4,5.56-9.25,2.66.06,3.35-5.65,2-7.77C30.39,27,30.39,27,28.82,22.16Z"/><path class="cls-2" d="M38.26,60.06c-.45-.09-1.11.75-1.24,1.59s.38,2,.85,2,.83-.93.93-1.62S38.72,60.16,38.26,60.06Z"/><path class="cls-2" d="M24.3,13.2c-.34,1.14.57,2.05,1.12,1.93.75-.17.84-2.35.11-2.78C25.07,12.07,24.57,12.28,24.3,13.2Z"/></svg>