<svg id="Layer_1" data-name="Layer 1" xmlns="http://www.w3.org/2000/svg" viewBox="0 0 50 150"><defs><style>.cls-1{fill:#4b8b41;stroke:#221f1f;stroke-linecap:round;stroke-linejoin:round;}</style></defs><path class="cls-1" d="M24.17,56.36c-1.48,0-2.51,5.93-1.42,8.87-.68.12-2.71-.13-3.14.6C19,66.9,20.13,68.77,21.9,71a2.41,2.41,0,0,0-2.51.78c-.5.8,0,2.3.72,3.31a5.34,5.34,0,0,0-4.68,4.35c-.4,2.14.23,5,2.3,5.94-1.33.21-2.71.77-3,2a3,3,0,0,0,1,2.78c-4.72,1-6.65,4.23-7.1,6.21-.76,3.37,1.58,7.61,5.63,8.85a3.92,3.92,0,0,0-2.11,3.29,2.31,2.31,0,0,0,1.68,2.15c-2.81-.17-4.58.92-4.61,4.33,0,2,.51,3.93,3.42,4.35a5.38,5.38,0,0,0-4,5.77c.09,3.11,3.39,5.81,7.63,5.1a3.15,3.15,0,0,0-.25,4.5c1,.94,2.09.45,3.25-.51a8.49,8.49,0,0,0,2.27,3,10.86,10.86,0,0,0,2.77,1.46v8.85h.67l0-8.92.43,0v8.89h.49l0-8.88a8.18,8.18,0,0,0,2.9-.89A6.64,6.64,0,0,0,31,136.11a5.46,5.46,0,0,0,7.79-2.33,7.2,7.2,0,0,0-1.37-8.59c1.21.15,2.93-.36,3.12-1.49a2.24,2.24,0,0,0-1.42-2.44,8.25,8.25,0,0,0,4.91-7.3c.08-3.35-1.86-6.9-5.06-7.77,3-2.22,3.66-4.31,3.49-7A6,6,0,0,0,37,93.36a2.59,2.59,0,0,0,.62-2C37.44,90.12,36,90,35.89,89.89a4.14,4.14,0,0,0,1-3.41,6.67,6.67,0,0,0-4.35-4.67,2,2,0,0,0,1.15-2.53,1.63,1.63,0,0,0-2.11-.79,6.16,6.16,0,0,0,2.19-6.13c-.52-2.46-2-4.46-5.8-3.7,3.13-2.8,2.12-6,1.55-6.4s-2-.29-3.24,2.31C25.81,56.83,25.36,56.36,24.17,56.36Z"/></svg>