<svg id="Layer_1" data-name="Layer 1" xmlns="http://www.w3.org/2000/svg" viewBox="0 0 50 150"><defs><style>.cls-1{fill:#8ec644;stroke:#221f1f;stroke-linecap:round;stroke-linejoin:round;}</style></defs><path class="cls-1" d="M24.59,140.86v6.76l.7,0v-6.8c2.72-.05,4.26-1.67,4.25-3,0-1-1.19-1.45-1.54-1.69a4.64,4.64,0,0,0,1.09-4,4.42,4.42,0,0,0-1.92-3c1.88-.68,2.78-2,2.54-4.41-.16-1.52-1.22-2.08-2.54-2.49,1.85-1.78,2.09-3.86,1.31-4.56-.44-.4-.67-.65-2.11-.56.07-2.06.33-4.71-1.08-4.71s-1.5,2.27-1.28,5a3.3,3.3,0,0,0-1.81,2.84A6.65,6.65,0,0,0,24,125c-2,.36-4.28,2.23-4.67,4-1,4.53,1.19,5.64,3.24,5.93a2.71,2.71,0,0,0-1.38,2.68C21.27,139.15,22.67,140,24.59,140.86Z"/></svg>