<svg id="Layer_1" data-name="Layer 1" xmlns="http://www.w3.org/2000/svg" viewBox="0 0 50 150"><defs><style>.cls-1{fill:#4c8a40;stroke:#221f1f;}.cls-1,.cls-2{stroke-linecap:round;stroke-linejoin:round;}.cls-2{fill:none;stroke:#e88227;stroke-width:1.01px;}</style></defs><path class="cls-1" d="M23.92,149.74h1l-.46-5.59c0-.14.9-.19,1-.22s-.27,5.81-.27,5.81.93,0,1,0,0-6,.07-6.07a5.12,5.12,0,0,0,2.65-2.44A5.73,5.73,0,0,0,35.73,143c2.82-1.19,3.35-4.85,3.17-7.79a12.67,12.67,0,0,0,4-1,5.67,5.67,0,0,0,0-10,4.16,4.16,0,0,0,2-4,4.28,4.28,0,0,0-2-3c.6-.22,4.93-1.81,5.79-6.06.62-3,.65-6.6-1.79-7.72a4.19,4.19,0,0,0-3-.22,11.51,11.51,0,0,0,.19-7.86,4.49,4.49,0,0,0-3.19-3.14,4.38,4.38,0,0,0,1.47-6.11c-.67-.9-1.87-1.27-3.47-.89a3.21,3.21,0,0,0,.18-2.53c-.39-.69-1.36-.55-2.18-.47.88-.58,3.74-2,4-5,.23-2.51.9-7.22-2.13-9.94a8.94,8.94,0,0,0-6.87-2.06,3.37,3.37,0,0,0-2-6c.12-.08,2.43-2.64,2.26-4.61A2.93,2.93,0,0,0,30.88,52c-1.15-.83-2.5-.11-2.77-.09.84-.19,1.5-1.69,1.24-3.16a1.73,1.73,0,0,0-2.56-1c-.79-2.47.61-6.63-1.39-6.62-2.5.2-1.92,5.61-1.92,7.61-.46.08-1.1-.42-1.73.35-1,1.21-.41,3.25.16,5.74a2.34,2.34,0,0,0-3,1.21,5.48,5.48,0,0,0,1,6.15A2.13,2.13,0,0,0,18.21,64a3.22,3.22,0,0,0,.69,3.26c-1.56-.47-2.51-1-3.66.93a4.62,4.62,0,0,0-.7,4c.82,1.93,3.17,3,3.67,3.19a4.07,4.07,0,0,0-1.31,1.87,6.2,6.2,0,0,0-.09,2.22,4.17,4.17,0,0,0-3.67,1.08,4.11,4.11,0,0,0-1.24,4.7,4.45,4.45,0,0,0-5,2c-1.09,2,.27,5.84,1.38,5.6a5.52,5.52,0,0,0-4.69,4.93c-.51,4.7,1.63,6.65,4.5,7.82-1.27.57-2.26,1.43-2.19,2.65a3.06,3.06,0,0,0,1,2,3.88,3.88,0,0,0-3.66,3.05,4.11,4.11,0,0,0,3.66,4.95,7.11,7.11,0,0,0-5,6,4.81,4.81,0,0,0,1.66,4,8.66,8.66,0,0,0,6,1.53,9.28,9.28,0,0,0-1.69,3.42c-.6,1.88-.51,4.49,1.09,5.64,2.18,1.57,6.83,1,8.91.36a4.62,4.62,0,0,0,1.68,3.5A8.17,8.17,0,0,0,23.76,144C24.14,144,23.79,149.75,23.92,149.74Z"/><path class="cls-2" d="M27.56,21.56c-1.13,2.68-6,5.1-7.36,11.82-1.62,7.93.65,10.41,2.35,16,.42,1.37,1.94,8.1-1.46,13.92-.79,1.36-3.29,4.73-7,4.7a7,7,0,0,1-4.21-1.61c-.68.34-5.49,2.82-6.63,8.24-.1.46-1.33,4.91,1.45,8.42,1.86,2.34,5.26,2.34,6.48,6,1.38,4.15-.76,5.45-3.56,11.41A21.57,21.57,0,0,0,6.2,115c1.23,4.36,8,4.64,10.92,4.78,9.55-2,8.87-3.79,14.89-4.62,5.34-.72,7.93.17,10.52,1.87a19.25,19.25,0,0,0,5.75-9.23,19,19,0,0,0,0-10c-1.47.11-3.8.37-5.58-1.06-4.86-3.88-5.79-10.27-6.24-15.7-.32-3.91.46-12.86,2.27-14.56,4.41-4.16,6.65-8.07,5.91-11.49-.61-2.8-1.38-7.6-9-7.68-5.57-.06-6.95-5-8.09-6.81a21.06,21.06,0,0,1-1.45-7.28C25.89,26.1,27.08,24.15,27.56,21.56Z"/><path class="cls-2" d="M15.18,51.91c-.41-.72-3,1.16-3,3.32,0,1.47,1.52,3.51,1.86,2.83C14.61,56.93,15.55,52.56,15.18,51.91Z"/><path class="cls-2" d="M27.89,9.43c-.95.4.16,5.18.56,5.18.61,0,1.81-1.47,1.46-3.08C29.63,10.24,28.42,9.2,27.89,9.43Z"/></svg>