<svg id="Layer_1" data-name="Layer 1" xmlns="http://www.w3.org/2000/svg" viewBox="0 0 50 150"><defs><style>.cls-1{fill:#559b45;stroke:#221f1f;stroke-linecap:round;stroke-linejoin:round;}</style></defs><path class="cls-1" d="M24.23,137.49v9.7h.56v-9.7h.64v9.7h.38v-9.7l4.93-1.83a4.75,4.75,0,0,0,2.95.78,3.15,3.15,0,0,0,2.25-1.25c1.57.17,2.41-1.11,3.15-3.19a7.06,7.06,0,0,0-1.45-6.85,4,4,0,0,0,.89-4.72A6.59,6.59,0,0,0,43.17,114c0-3.15-2.6-6.47-4.77-8.21,2.3-1.39,3.19-4.6,3.19-6.64,0-2.21-2.08-4.21-4.76-4.43a2,2,0,0,0-1.36-3.57,8.32,8.32,0,0,0,0-6.72,7.6,7.6,0,0,0-4.77-4.3c.73-1.83,3-6.07,1.83-8.34-.8-1.53-1.44-1.7-3.87-1.83,1.09-1.89,1.08-3.59.43-4-1.49-.85-1.6.14-2.56,1-.74-3.59-.89-5.36-2.08-5.36-1.49,0-1.52,2.78-2.17,8.29-1.27-.38-1.73,0-1.83.09-.67.63,0,2,1.23,4.13A5.31,5.31,0,0,0,17,76.51c-1.45,2.1-1.79,3.49.34,7.45a4.75,4.75,0,0,0-1.24,7.1,6.4,6.4,0,0,0-5.83,4.51c-1.32,3.83,1.45,7.71,4.81,9.92-.31.2-1.2.17-1.61,1.45a6.32,6.32,0,0,0,.72,4.55c-.31.12-2.81.64-3.28,2.89s1.19,4.68,2.26,6.26c-.23.15-2.69,1.57-2.68,4S12,129.91,16.62,130a2.25,2.25,0,0,0,3.06,3.06,7.14,7.14,0,0,0,4.55,4.43Z"/></svg>