<svg id="Layer_1" data-name="Layer 1" xmlns="http://www.w3.org/2000/svg" viewBox="0 0 50 150"><defs><style>.cls-1{fill:#62b148;stroke:#221f1f;stroke-linecap:round;stroke-linejoin:round;}</style></defs><path class="cls-1" d="M24.65,135v12.32h1V135a4.17,4.17,0,0,0,2.11-.9,4,4,0,0,0,1.08-1.34,2.64,2.64,0,0,0,2-1.78c.35-1.16-.3-2.08-1.4-3.13,2.57-.07,3.65-1.4,3.77-3.13.12-2-.9-4.3-2.56-5a2.19,2.19,0,0,0,1.41-2c0-1-.81-1.53-1.6-2.49a4.49,4.49,0,0,0,3.06-5c-.36-2.53-2.23-3.47-4.4-4.66a2.13,2.13,0,0,0,1-2.13c-.19-1.1-1-1.61-2.18-2.12a2.45,2.45,0,0,0,.62-3.15,2,2,0,0,0-2.77.41c-.22-1.05-.4-5.65-2-5.65-2,0-.87,5.11-.61,6.13-1.86-.92-4.05-1.14-4.64-.08-.77,1.36.31,3.38,2.51,4.29-3.28-.38-3.85,1.32-4.17,3.24-.37,2.17,1.29,3.63,3.15,4a2.79,2.79,0,0,0-1.07,2,3.08,3.08,0,0,0,1.7,2.36c-2.38.2-3.64.16-4.08,3.71a4.76,4.76,0,0,0,3.64,5.29,2.07,2.07,0,0,0-.77,1.54,2,2,0,0,0,1,1.72,2.86,2.86,0,0,0-2.55,3,2.73,2.73,0,0,0,3.17,2.38,9.53,9.53,0,0,0,1.43,1.39A9.55,9.55,0,0,0,24.65,135Z"/></svg>