<svg id="Layer_1" data-name="Layer 1" xmlns="http://www.w3.org/2000/svg" viewBox="0 0 50 150"><defs><style>.cls-1{fill:#559b45;stroke:#221f1f;}.cls-1,.cls-2{stroke-linecap:round;stroke-linejoin:round;}.cls-2{fill:none;stroke:#e88227;stroke-width:0.96px;}</style></defs><path class="cls-1" d="M24.06,141.71v7.49h.56v-7.49h.85v7.49h.42v-7.49a6.73,6.73,0,0,0,4.43-2.81,4.43,4.43,0,0,0,5.45,0,9,9,0,0,0,3.53-6.55c.25,0,3.35-.12,4.38-3,.84-2.32.06-4.5-1.57-6.89a3.52,3.52,0,0,0,1.59-2.79,3.68,3.68,0,0,0-1.51-3.34c3.2-1.73,5.6-7.46,5-9.65-1-3.47-4.21-2.79-4.86-2.86a10.89,10.89,0,0,0,1.11-7.45c-.78-3-3-4-3.88-4.8,2-1.9,2.8-3.51,2.21-5.66a4.82,4.82,0,0,0-4.21-3.62c.06-.82.45-1.79-.14-2.61a2.09,2.09,0,0,0-2.2-1c4.53-3.58,3.9-6.48,2-9.41-1.57-2.46-3.8-3.48-7.83-2.8,1.83-1.71,2.59-4.2,1.75-6-.61-1.33-1.73-1.48-3.33-1.7,2-2.33,2.16-4.53,1.75-4.85s-1.44-.09-2.47,1.36c.23-4-.47-6.27-1.53-6.46-1.23-.22-2.26,3-2.34,7.61a2,2,0,0,0-2,1.62c-.26,1.12.76,2.22,1.15,3.06a2,2,0,0,0-2,1c-.72,1.17-.26,3.48.34,4.4-2,.1-3.45,1.07-3.76,2.88-.56,3.23,1.22,4.72,3.55,5a4.55,4.55,0,0,0-.85,1.53,4.69,4.69,0,0,0-.22,2c-1.51.37-3.42.85-4.55,1.91-1.3,1.23-1.27,3.35-.51,5a5.59,5.59,0,0,0-3.15,2,3.16,3.16,0,0,0,0,4.55,7.75,7.75,0,0,0-5.11,5A8.69,8.69,0,0,0,10,105.67c-.66.43-1.68,1-1.85,1.92s.36,1.31,1,2.08c-1.53.77-3.19,1.46-3.54,3.16s1,3.29,2.09,4.67a7,7,0,0,0-3,6.6c.48,2.93,3.27,5,6.55,5-.69,2.65-.67,4.61.93,6.26s3.52,1.63,6,1.23c.52,1.2.37,2.2,1.87,3.58A6.08,6.08,0,0,0,24.06,141.71Z"/><path class="cls-2" d="M26.92,22.4c.88,3.68,1.39,8.38-1.23,11.53s-6.5,1.2-8.75,4.84c-1.58,2.56-2.71,6.93.37,14.31,0,0,3.77,10.15.08,23.53a22.89,22.89,0,0,1-1.77,3.92c-.94,1.7-1.42,2.55-2.23,3.08-1.88,1.2-2.55.79-4.55.56C7.22,84,4.9,86.66,4.32,93.29c-.31,3,1.14,5.07-.19,8.58-1,2.63-2.29,3.58-2.81,6-.8,3.57,1,7.3,3.23,10.07,2.07,2.61,5.76,2.15,6.84,2.38,3.54.77,10.42,4.39,15.53,4.39,5.28,0,12.22-2.6,15.61-7.69,2.62-3.92,1.65-10,2.39-11.77,1.33-3.24,4.81-6.47,4.46-9.92-.47-4.46-3.07-4.35-3.69-7.35-1.36-6.65-.92-9.15-4.16-11.56-2.25-1.68-3.45-.7-5.23-1.39-3.89-1.51-6.45-6.46-7.53-9.69a20.26,20.26,0,0,1-.92-10.22C28.2,52.77,30,52.33,30,50c0-1.06-1.26-1.54-1.46-4-.36-4.38,3.84-3.61,4.53-9.45C33.62,31.94,29.23,28.78,26.92,22.4Z"/><path class="cls-2" d="M24.23,11.63a4.54,4.54,0,0,0-1.54,2.31,4.7,4.7,0,0,0,.77,3.84,4.11,4.11,0,0,0,.77-6.15Z"/><path class="cls-2" d="M37.07,62.07c.59.08,1,1.16.93,2,0,.67-.41,1.64-1,1.7s-1.26-.86-1.31-1.7C35.63,63.06,36.45,62,37.07,62.07Z"/></svg>