<svg id="Layer_1" data-name="Layer 1" xmlns="http://www.w3.org/2000/svg" viewBox="0 0 50 150"><defs><style>.cls-1{fill:#559b45;stroke:#221f1f;stroke-linecap:round;stroke-linejoin:round;}</style></defs><path class="cls-1" d="M24.19,137v10.3h.6l.08-10.3h.43v10.3h.42V137a6,6,0,0,0,2.81-.68,5.87,5.87,0,0,0,1.7-1.36c.55.21,6.05,1,7.24-2.05,1.63-4.14,1.46-6.48-1.28-7.91a2.58,2.58,0,0,0,1.62-2.56,2.63,2.63,0,0,0-1.28-1.91c2.84-1.12,6.23-3.8,5.94-6.45-.48-4.37-2.81-6.6-5.71-8.29,2.32-1.65,5.4-2.62,3.44-6.85-1.82-3.91-3-5.44-7.75-5.54,2-1.89,3.44-4,2.17-7.66a7.65,7.65,0,0,0-4.89-4.59,3.61,3.61,0,0,0,.87-2.94c-.23-1.2-1.44-1.62-1.66-1.79,1.93-1.59,2.45-3.92,1.4-5.1-1.2-1.35-2.73-.65-4.21.7,0-3.41-.13-6.89-1.94-6.89s-1.64,6.41-1.38,10.59A4,4,0,0,0,18,77.54c-1.35,2.09-.71,4.87.64,7.22A3.82,3.82,0,0,0,15.91,87c-.73,2.2.9,3.32,1.92,5.23a7.07,7.07,0,0,0-6.77,4.54c-1.11,3.35.8,6.79,4.92,8.8-.09,0-2.11,1.6-2.3,3.13A4,4,0,0,0,15,112c-2.4,1-3.66,2-3.9,5-.31,4,1.85,4.76,2.43,5.56a4.92,4.92,0,0,0-.77,5.23c.95,2,2.88,3.1,5.62,2.62a1.58,1.58,0,0,0,0,1.85,1.6,1.6,0,0,0,2.11.32A4.78,4.78,0,0,0,24.19,137Z"/></svg>