<svg id="Layer_1" data-name="Layer 1" xmlns="http://www.w3.org/2000/svg" viewBox="0 0 50 150"><defs><style>.cls-1{fill:#62b148;stroke:#221f1f;stroke-linecap:round;stroke-linejoin:round;}</style></defs><path class="cls-1" d="M24.44,137v10.65h.92V137c4.08-.8,4.72-1.27,4.78-3.38a3.7,3.7,0,0,0-1.88-3.1,2.18,2.18,0,0,0,2.46-1.31,1.55,1.55,0,0,0-1.34-1.46c.26-.1,2.47-.35,2.45-2.14s-1.81-3.29-4.34-4.85c1.53-.72,2.17-2.08,2.08-4.31a4.06,4.06,0,0,0-2.68-3.58,2.51,2.51,0,0,0,.76-2.55,2.4,2.4,0,0,0-1.08-1.34c1.34-1.44,1.53-2.43,1.24-3.29-.12-.38-1.21-.67-1.94-.19-.1-3.73-.32-5.46-1.79-5.3-.94.11-1,1-.58,3.1a2.42,2.42,0,0,0-2.55,1.63c-.5,1.75-.57,4.59,1.72,5.65a1.72,1.72,0,0,0-2.1,1,2.65,2.65,0,0,0,.89,3c-2,.66-3.26,2.58-3.25,5.23,0,2.25,2.45,3.58,4.27,3.7a2.8,2.8,0,0,0-1.82,2.65,5.27,5.27,0,0,0,2.08,3.48c-1.88.44-3.6.7-3.67,3.16C19,135,20.94,136.07,24.44,137Z"/></svg>