<svg id="Layer_1" data-name="Layer 1" xmlns="http://www.w3.org/2000/svg" viewBox="0 0 50 150"><defs><style>.cls-1{fill:#5e9351;stroke:#221f1f;stroke-linecap:round;stroke-linejoin:round;}</style></defs><path class="cls-1" d="M24.32,135.7v11.53H25l-.26-11.44h.52l-.05,11.44h.43v-11.5a6.4,6.4,0,0,0,2.89-.37A6.31,6.31,0,0,0,30.66,134c3.68,0,5-1.83,5.53-2.78,1.44-2.69.43-5.69-1.57-6.66.82-.3,1.71-.42,1.74-1.66a2.78,2.78,0,0,0-1.15-2.51c3.7-1.2,6.06-4.47,6-7.41,0-4.64-2.52-6.55-5.54-7.15,2.06-1.28,3.88-2,3.15-5.91-.48-2.61-2.85-5.58-4.51-5.87,1.92-1.24,2.26-3.08,1.7-5.49-1.23-5.32-3.29-5.2-6.48-4.17,1.13-.6,1.31-1.34.8-2.58-.42-1-2.33-.2-2.44-.23,1.66-1.41,2.18-2.94,1.61-4s-1.79-.6-3.57-.17c.3-1.7.84-6.18-1.36-5.7-1.36.3-1.51,3.73-1.13,5.39-.79-.12-3-1.35-4,.22s-1.11,4.39,1.36,7.41c0,0-3.51-.67-5,2.15-1.23,2.34.32,5.3,1.51,7-3.11,1.06-3.56,4.39-3.74,5.79-.27,2,.68,6.59,4.85,8.17a3.5,3.5,0,0,0-3.32,2.68c-.42,1.6,2,3.37,2,3.45-2.21.8-5,1-5.58,3.44-.24,1,.91,5.3,2.64,6.26-.7,1.74-1.24,3.21-.38,5.23s2.64,3.87,5.87,3.11a3.8,3.8,0,0,0,2.05,2.51A8.12,8.12,0,0,0,24.32,135.7Z"/></svg>