<svg id="Layer_1" data-name="Layer 1" xmlns="http://www.w3.org/2000/svg" viewBox="0 0 50 150"><defs><style>.cls-1{fill:none;}.cls-1,.cls-2{stroke:#221f1f;stroke-linecap:round;stroke-linejoin:round;}.cls-2{fill:#221f1f;}</style></defs><polyline class="cls-1" points="21.81 63.32 22.98 65.75 24.51 68.08 25.49 71.06"/><polyline class="cls-1" points="30.97 63.77 29.96 64.89 28.21 66.17 26.58 66.64"/><path class="cls-1" d="M12.21,76.35c1.15,2.12,3,2.52,4.77,4.08.49.43,2.36,3.21,2.85,3.64,1.51,1.33,2.6,1.87,3.82,3.38"/><polyline class="cls-1" points="12.66 81.34 15.74 81.66 17.93 81.61"/><polyline class="cls-1" points="24.09 101.72 31.26 96.01 38.77 92.94 43.15 89.19"/><polyline class="cls-1" points="38.04 93.46 40.96 94.42 42.47 94.81"/><polyline class="cls-1" points="36.85 86.81 35.57 90.77 32.97 95.16"/><path class="cls-2" d="M27.09,57.74,25.84,68.53l-1.16,8.3L23.56,90l.09,10.23.44,1.46v2.88l.22.09.19-6S25,87.79,25,87.45,25.49,74,25.49,74l.91-7.61Z"/><polygon class="cls-2" points="19.75 147.65 20.81 147.32 22.6 146.72 23.79 144.77 25 143.7 26.3 144.64 27.23 145.79 28.34 146.77 29.15 146.85 29.61 147.68 19.75 147.65"/><polygon class="cls-2" points="24.4 140.44 24.68 140.79 25 140.44 24.4 140.44"/><polygon class="cls-2" points="23.7 138.39 23.89 138.87 24.18 138.2 23.7 138.39"/><path class="cls-2" d="M25,138.2l.3.34Z"/><path class="cls-2" d="M22.68,143l.35-.13Z"/><polygon class="cls-2" points="27.25 141.84 27.53 142.38 27.79 141.84 27.25 141.84"/><path class="cls-2" d="M25,135.9l.3.29Z"/><path class="cls-2" d="M23.7,136.67h0Z"/><polygon class="cls-2" points="25.3 131.63 25.15 132.04 25.3 132.04 25.3 131.63"/><path class="cls-2" d="M23.82,132.2l.12.32Z"/><path class="cls-2" d="M25.3,129.65v0Z"/><path class="cls-2" d="M23.26,125.12l.44.38Z"/><path class="cls-2" d="M25.15,123.49l.15.16Z"/><path class="cls-2" d="M24.34,113.82h0Z"/><path class="cls-2" d="M24.34,111.71l.16-.25Z"/><path class="cls-2" d="M24.34,110.12h0Z"/><path class="cls-2" d="M24.34,108l.08.25Z"/><path class="cls-2" d="M25.15,117.33h0Z"/><path class="cls-2" d="M27.24,138.37h0Z"/></svg>