<svg id="Layer_1" data-name="Layer 1" xmlns="http://www.w3.org/2000/svg" viewBox="0 0 50 150"><defs><style>.cls-1{fill:none;}.cls-1,.cls-2{stroke:#221f1f;stroke-linecap:round;stroke-linejoin:round;}.cls-2{fill:#221f1f;}</style></defs><polyline class="cls-1" points="22.56 64.97 23.72 66.65 24.93 68.99 26.03 71.34"/><polyline class="cls-1" points="31.72 64.68 30.35 65.54 28.5 66.31 26.65 67.04"/><path class="cls-1" d="M13.4,77.59c1.15,2.12,1.92,1.47,3.67,3,.5.43,3.78,4.53,4.28,5,1.5,1.33,2.27,1.59,3.49,3.1"/><polyline class="cls-1" points="14.71 82.01 16.08 81.78 19.12 83.08"/><polyline class="cls-2" points="27.14 58.97 26.65 67.04 24.54 81.78 24.84 91.27 25.21 79.39 26.14 70.64"/><polygon class="cls-2" points="19.77 147.7 20.91 146.94 22.53 146.94 23.43 144.85 24.7 143.91 26.15 144.85 27.43 146.04 29.09 146.89 29.55 147.7 19.77 147.7"/><polygon class="cls-2" points="24.11 141.23 24.4 141.79 25.27 141.51 24.11 141.23"/><path class="cls-2" d="M23.6,138.68l.29.21Z"/><path class="cls-2" d="M25.64,138v0Z"/><path class="cls-2" d="M23.89,135.32v0Z"/><path class="cls-2" d="M22.83,143.28h0Z"/><path class="cls-2" d="M31.13,147.7h0Z"/><path class="cls-2" d="M36,94.38l.43-.29Z"/><polygon class="cls-2" points="24.54 99.06 24.84 98.38 24.06 99.06 24.54 99.06"/><path class="cls-2" d="M24.06,103.4v0Z"/><path class="cls-2" d="M25,110.3l.27.38Z"/><path class="cls-2" d="M26.32,114.38l-.21.26Z"/><path class="cls-2" d="M25.68,115.87v0Z"/><path class="cls-2" d="M25.47,119.32v0Z"/><path class="cls-2" d="M25.47,121.79v0Z"/><path class="cls-2" d="M31.72,95.87h0Z"/><path class="cls-2" d="M30.28,98v0Z"/><path class="cls-2" d="M24.06,96.77h0Z"/><path class="cls-2" d="M24.28,94.55h0Z"/></svg>