<svg id="Layer_1" data-name="Layer 1" xmlns="http://www.w3.org/2000/svg" viewBox="0 0 50 150"><defs><style>.cls-1{fill:#559b45;stroke:#221f1f;stroke-linecap:round;stroke-linejoin:round;}</style></defs><path class="cls-1" d="M24.06,139.74v7.49h.56v-7.49h.85v7.49h.42v-7.49a6.64,6.64,0,0,0,2.6-1,6.73,6.73,0,0,0,1.83-1.78,4.46,4.46,0,0,0,5.45,0,9,9,0,0,0,3.53-6.56c.25,0,3.35-.11,4.38-3,.84-2.31.06-4.5-1.57-6.89a3.52,3.52,0,0,0,1.59-2.79,3.7,3.7,0,0,0-1.51-3.34c3.2-1.73,5.6-7.45,5-9.65-1-3.47-4.21-2.79-4.86-2.86a10.87,10.87,0,0,0,1.11-7.44c-.78-3.05-3-4-3.88-4.81,2-1.9,2.8-3.51,2.21-5.66a4.82,4.82,0,0,0-4.21-3.62c.06-.82.45-1.79-.14-2.61a2.09,2.09,0,0,0-2.2-1c4.53-3.57,3.9-6.47,2-9.4-1.57-2.47-3.8-3.49-7.83-2.81,1.83-1.7,2.59-4.2,1.75-6-.61-1.32-1.73-1.48-3.33-1.69,2-2.33,2.16-4.54,1.75-4.86s-1.44-.09-2.47,1.37c.23-4-.47-6.28-1.53-6.47-1.23-.22-2.26,3-2.34,7.62a2,2,0,0,0-2,1.61c-.26,1.12.76,2.23,1.15,3.07a2,2,0,0,0-2,1c-.72,1.16-.26,3.47.34,4.39-2,.1-3.45,1.08-3.76,2.88-.56,3.24,1.22,4.72,3.55,5a4.55,4.55,0,0,0-.85,1.53,4.69,4.69,0,0,0-.22,2c-1.51.37-3.42.85-4.55,1.91-1.3,1.23-1.27,3.36-.51,5a5.59,5.59,0,0,0-3.15,2,3.16,3.16,0,0,0,0,4.55,7.78,7.78,0,0,0-5.11,5A8.69,8.69,0,0,0,10,103.7c-.66.43-1.68,1-1.85,1.93s.36,1.31,1,2.07c-1.53.77-3.19,1.47-3.54,3.16s1,3.29,2.09,4.67a7,7,0,0,0-3,6.6c.48,2.93,3.27,5,6.55,5-.69,2.65-.67,4.6.93,6.25s3.52,1.63,6,1.24c.52,1.19.37,2.19,1.87,3.57A6.08,6.08,0,0,0,24.06,139.74Z"/></svg>