<svg id="Layer_1" data-name="Layer 1" xmlns="http://www.w3.org/2000/svg" viewBox="0 0 50 150"><defs><style>.cls-1{fill:#559b45;stroke:#221f1f;}.cls-1,.cls-2{stroke-linecap:round;stroke-linejoin:round;}.cls-2{fill:none;stroke:#e88227;stroke-width:0.99px;}</style></defs><path class="cls-1" d="M24.06,141.71v7.49h.56v-7.49h.85v7.49h.42v-7.49a6.73,6.73,0,0,0,4.43-2.81,4.43,4.43,0,0,0,5.45,0,9,9,0,0,0,3.53-6.55c.25,0,3.35-.12,4.38-3,.84-2.32.06-4.5-1.57-6.89a3.52,3.52,0,0,0,1.59-2.79,3.68,3.68,0,0,0-1.51-3.34c3.2-1.73,5.6-7.46,5-9.65-1-3.47-4.21-2.79-4.86-2.86a10.89,10.89,0,0,0,1.11-7.45c-.78-3-3-4-3.88-4.8,2-1.9,2.8-3.51,2.21-5.66a4.82,4.82,0,0,0-4.21-3.62c.06-.82.45-1.79-.14-2.61a2.09,2.09,0,0,0-2.2-1c4.53-3.58,3.9-6.48,2-9.41-1.57-2.46-3.8-3.48-7.83-2.8,1.83-1.71,2.59-4.2,1.75-6-.61-1.33-1.73-1.48-3.33-1.7,2-2.33,2.16-4.53,1.75-4.85s-1.44-.09-2.47,1.36c.23-4-.47-6.27-1.53-6.46-1.23-.22-2.26,3-2.34,7.61a2,2,0,0,0-2,1.62c-.26,1.12.76,2.22,1.15,3.06a2,2,0,0,0-2,1c-.72,1.17-.26,3.48.34,4.4-2,.1-3.45,1.07-3.76,2.88-.56,3.23,1.22,4.72,3.55,5a4.55,4.55,0,0,0-.85,1.53,4.69,4.69,0,0,0-.22,2c-1.51.37-3.42.85-4.55,1.91-1.3,1.23-1.27,3.35-.51,5a5.59,5.59,0,0,0-3.15,2,3.16,3.16,0,0,0,0,4.55,7.75,7.75,0,0,0-5.11,5A8.69,8.69,0,0,0,10,105.67c-.66.43-1.68,1-1.85,1.92s.36,1.31,1,2.08c-1.53.77-3.19,1.46-3.54,3.16s1,3.29,2.09,4.67a7,7,0,0,0-3,6.6c.48,2.93,3.27,5,6.55,5-.69,2.65-.67,4.61.93,6.26s3.52,1.63,6,1.23c.52,1.2.37,2.2,1.87,3.58A6.08,6.08,0,0,0,24.06,141.71Z"/><path class="cls-2" d="M6.54,118.67c-1.62-1.45-4-3.63-3.87-6.56.16-2.61,1.63-4.4,1.94-7.11.75-6.56-1-9.54,1.93-16.44C8.91,83,11.28,84,14.6,76.05c1.57-3.74,4-13,1.07-18.79a9.65,9.65,0,0,1,0-9.17,13.74,13.74,0,0,1,3.16-5c.79.12,4.32.81,6.32-1.5,2.61-3,2-6.71-.47-13,1.5,2.53,4.82,5.11,6.64,8.54,2.43,4.56,1,8.06-.71,17-1,4.93-1.22,16.22,3.16,23.55.75,1.25,2.19,3.6,4,3.48,1.62-.11,2.69-2.07,3-2.69a14.42,14.42,0,0,1,4,5.22c2.68,6.87,1.58,11.85,1.5,19.12,0,3.44,2.07,4.55,2.13,7.43.07,3.32-2.38,5.61-4.51,7.27-2.53,2-2.92,4.88-6.47,5.22-5.7.55-9.6.09-12.41-.87-6.42-2.18-7.7-5.52-12.1-5.85C9.7,115.75,7.85,117.57,6.54,118.67Z"/><path class="cls-2" d="M37.76,65.56c-.3.19-1.48,3.27-.16,5.21.36.54,1.13,1.37,1.66,1.19.7-.24.76-2.15.4-3.56S38.33,65.2,37.76,65.56Z"/><path class="cls-2" d="M23.93,15.05a7.52,7.52,0,0,0-1.82,6.05,7,7,0,0,0,2.53,4.78,8.61,8.61,0,0,0,1.58-5.41A8.74,8.74,0,0,0,23.93,15.05Z"/></svg>