<svg id="Layer_1" data-name="Layer 1" xmlns="http://www.w3.org/2000/svg" viewBox="0 0 50 150"><defs><style>.cls-1{fill:#8ec644;stroke:#221f1f;stroke-linecap:round;stroke-linejoin:round;}</style></defs><path class="cls-1" d="M24.81,147.24h.51l-.06-5.39a3.44,3.44,0,0,0,3-2.26,3.06,3.06,0,0,0-1.52-3.76c1.5,0,2.7-.43,2.9-2.3.15-1.39-.14-2-1.19-2.55,1.4-.55,1.28-1.89,1.19-3.15-.11-1.51-.84-1.69-1.62-2.34,1.3-1.44,1.64-2.86,1.19-3.32s-1.43-.16-2.47.43c0-1.56-.13-4.09-1.36-4.09-1.43,0-1.47,2.92-1.44,5.15a1.49,1.49,0,0,0-2.13.21c-.69.68-.58,2.42.89,3.7a3.3,3.3,0,0,0-2.9,3.05c0,1.55,1.31,2,2.94,2.78-.8.44-1.73,1-1.28,2.58.19.67,1,.81,1.67,1a3.64,3.64,0,0,0-.78,2.61c.18,1.6,2.35,2.22,2.46,2.26Z"/></svg>