<svg id="Layer_1" data-name="Layer 1" xmlns="http://www.w3.org/2000/svg" viewBox="0 0 50 150"><defs><style>.cls-1,.cls-2{fill:none;}.cls-1,.cls-2,.cls-3{stroke:#221f1f;stroke-linecap:round;stroke-linejoin:round;}.cls-2{stroke-width:0.75px;}.cls-3{fill:#221f1f;}</style></defs><polygon class="cls-1" points="24.04 147.06 24.93 146.43 25.1 147.06 25.48 147.62 24.55 147.62 24.04 147.06"/><polygon class="cls-1" points="26.53 147.64 26.75 147.64 26.64 147.3 26.53 147.64"/><path class="cls-2" d="M27.66,147.76h0Z"/><polygon class="cls-2" points="22.9 147.36 23.32 147.75 23.19 147.36 22.9 147.36"/><polyline class="cls-1" points="20.62 64.68 21.98 68.12 23.33 71.36 24.11 74.59"/><polyline class="cls-1" points="30.19 64.68 28.96 66.59 26.96 68.12 25.39 70.15"/><path class="cls-1" d="M11.74,78.57a39.25,39.25,0,0,0,5.11,5.31c.49.43,2.13,2.62,2.62,3.05,1.5,1.33,2.64.74,3.86,2.25"/><polyline class="cls-1" points="11.74 83.56 14.81 84.19 17.29 84.25"/><polyline class="cls-1" points="23.98 103.36 28.45 99.27 36.87 95.23 43.47 90.34"/><polyline class="cls-1" points="36.37 95.53 39.68 96.35 41.17 96.1"/><polyline class="cls-1" points="35.55 88 33.62 93.15 31.78 97.67"/><polyline class="cls-1" points="25 125.78 36.15 120.34 41.34 118.55 42.19 116.89"/><polyline class="cls-1" points="34.9 121.42 41.06 121.85 43.64 120.93"/><polyline class="cls-1" points="32.03 122.38 34.7 119.27 36.15 117.06"/><polyline class="cls-1" points="8.62 118.21 12.74 122.17 16.19 124.25 18.87 126.89"/><polyline class="cls-1" points="5.85 123.87 11.72 124.08 14.49 123.57"/><path class="cls-3" d="M24.45,134.46l.59-.29L24,113.27l0-16.21.16-9.15,1.58-24.34.21-5.83C25.2,64.51,23.61,77.79,23,86.85c-.95,14.15-1.21,23.28-.85,27.44.5,5.76.42,10.68.85,14l.85,1.36Z"/><polygon class="cls-1" points="20.53 130 21.17 130.25 20.85 129.74 20.53 130"/><polygon class="cls-1" points="23.09 134.97 23.09 135.74 23.47 134.97 23.09 134.97"/><polygon class="cls-1" points="23.94 137.57 24.45 137.91 24.45 137.06 25 136.68 23.94 137.57"/><path class="cls-1" d="M23.47,139.91h0Z"/><path class="cls-1" d="M24.47,141.61l.19.17Z"/></svg>