<svg id="Layer_1" data-name="Layer 1" xmlns="http://www.w3.org/2000/svg" viewBox="0 0 50 150"><defs><style>.cls-1{fill:#221f1f;}.cls-1,.cls-2{stroke:#221f1f;stroke-linecap:round;stroke-linejoin:round;}.cls-2{fill:none;}</style></defs><polyline class="cls-1" points="27.21 59.57 26.89 65.67 25.28 74.79 25 83.64 25.27 83.48 25.78 74.1 26.93 66.47"/><polyline class="cls-2" points="22.84 64.49 25 68.1 25.95 71"/><polyline class="cls-2" points="30.34 64.75 28.61 65.78 26.87 66.81"/><polygon class="cls-1" points="19.27 147.25 20.41 146.57 21.63 146.57 23.03 144.85 24.15 143.06 25.55 143.29 26.73 144.63 28.65 146.64 30.69 147.05 31.43 147.25 19.27 147.25"/><polygon class="cls-1" points="25.65 137.48 26.16 137.7 25.9 136.97 25.65 137.48"/><polygon class="cls-1" points="22.49 139.39 22.78 139.62 22.78 139.2 22.49 139.39"/><path class="cls-1" d="M23.89,140.8l.26.16Z"/><path class="cls-1" d="M24.4,138.82l.16.19Z"/><path class="cls-1" d="M28.17,143.06l.35.29Z"/><polygon class="cls-1" points="26.7 140.8 26.16 140.96 26.43 141.28 26.7 140.8"/><path class="cls-1" d="M19.81,144.85h0Z"/><path class="cls-1" d="M23.64,132.18h0Z"/><path class="cls-1" d="M24.4,133.68l.08.16Z"/><path class="cls-1" d="M25.55,131v0Z"/><path class="cls-1" d="M24.56,125.22l.2-.25Z"/><path class="cls-1" d="M25.9,118.81h0Z"/><path class="cls-1" d="M24.34,101.64h0Z"/><path class="cls-1" d="M25,97.81h0Z"/><polygon class="cls-1" points="24.34 94.2 24.82 94.2 24.34 94.62 24.34 94.2"/><path class="cls-1" d="M25.43,92.29h0Z"/><path class="cls-1" d="M23.8,88.59h0Z"/><path class="cls-1" d="M25,87.37h0Z"/><path class="cls-1" d="M31.43,96.34v0Z"/><path class="cls-1" d="M19.55,83.83h0Z"/><path class="cls-1" d="M18.6,82.65v0Z"/><path class="cls-1" d="M16.49,80l.22.29Z"/><path class="cls-1" d="M19.55,87.37h0Z"/></svg>