<svg xmlns="http://www.w3.org/2000/svg" viewBox="0 0 246.56 529.56"><defs><style>.cls-1{fill:#78505b;stroke:#56334a;}.cls-1,.cls-2,.cls-3{stroke-miterlimit:10;stroke-width:5px;}.cls-2{fill:#26b2a5;stroke:#186c71;}.cls-3{fill:#ffec76;stroke:#ffc408;}</style></defs><g id="Layer_2" data-name="Layer 2"><g id="Layer_1-2" data-name="Layer 1"><path class="cls-1" d="M102.54,466V519.5s20.74,17,48,0V466Z"/><path class="cls-2" d="M109.54,14.5s13.74-27,30,0l104,422s5,22-16,21c0,0-113,19.07-209,0,0,0-17-3-16-19Z"/><path class="cls-3" d="M179.43,85.9l7.67,22.37a34.77,34.77,0,0,0,16.2,19.21l10.2,5.58-9.43,5.16a34.75,34.75,0,0,0-16.65,20.66l-8,27.11-8-27.11a34.75,34.75,0,0,0-16.65-20.66l-9.43-5.16,10.2-5.58a34.77,34.77,0,0,0,16.2-19.21Z"/><path class="cls-3" d="M50.75,268.2l7.67,22.37a34.77,34.77,0,0,0,16.2,19.21l10.2,5.58-9.43,5.16a34.75,34.75,0,0,0-16.65,20.66l-8,27.11-8-27.11a34.75,34.75,0,0,0-16.65-20.66l-9.43-5.16,10.2-5.58a34.77,34.77,0,0,0,16.2-19.21Z"/></g></g></svg>