<svg id="Layer_1" data-name="Layer 1" xmlns="http://www.w3.org/2000/svg" viewBox="0 0 50 150"><defs><style>.cls-1{fill:#4b8b41;stroke:#221f1f;stroke-linecap:round;stroke-linejoin:round;}</style></defs><path class="cls-1" d="M24,58.32c-1.48,0-2.51,5.92-1.42,8.87-.68.12-2.71-.13-3.15.59-.64,1.07.52,2.94,2.3,5.2a2.41,2.41,0,0,0-2.51.78c-.51.8,0,2.29.72,3.3a5.36,5.36,0,0,0-4.68,4.35c-.41,2.15.23,5,2.3,6-1.33.21-2.71.77-3,2a3,3,0,0,0,1,2.78c-4.72,1-6.65,4.23-7.1,6.2C7.64,101.71,10,106,14,107.2a3.92,3.92,0,0,0-2.11,3.29,2.32,2.32,0,0,0,1.68,2.15C10.79,112.46,9,113.55,9,117c0,2,.51,3.92,3.41,4.35a5.38,5.38,0,0,0-4,5.77c.09,3.11,3.39,5.8,7.63,5.1a3.15,3.15,0,0,0-.25,4.5c1,.94,2.09.45,3.25-.51a8.39,8.39,0,0,0,2.27,3,10.63,10.63,0,0,0,2.77,1.47v8.85h.67l0-8.92.43,0v8.89h.49l0-8.88a8.18,8.18,0,0,0,2.9-.89,6.51,6.51,0,0,0,2.27-1.7,5.46,5.46,0,0,0,7.79-2.33,7.18,7.18,0,0,0-1.38-8.58c1.22.14,2.94-.37,3.13-1.49a2.25,2.25,0,0,0-1.42-2.45,8.27,8.27,0,0,0,4.91-7.3c.08-3.34-1.86-6.89-5.06-7.76,3-2.22,3.66-4.31,3.49-7a6,6,0,0,0-5.49-5.79,2.59,2.59,0,0,0,.61-2c-.18-1.22-1.63-1.4-1.73-1.45a4.14,4.14,0,0,0,1-3.41,6.67,6.67,0,0,0-4.35-4.67,2,2,0,0,0,1.15-2.53,1.63,1.63,0,0,0-2.11-.79,6.16,6.16,0,0,0,2.19-6.13c-.52-2.46-2-4.46-5.81-3.7,3.14-2.8,2.13-6.05,1.56-6.41s-2-.28-3.24,2.32C25.59,58.79,25.14,58.32,24,58.32Z"/></svg>