<svg id="Layer_1" data-name="Layer 1" xmlns="http://www.w3.org/2000/svg" viewBox="0 0 50 150"><defs><style>.cls-1{fill:#4c8a40;stroke:#221f1f;stroke-linecap:round;stroke-linejoin:round;}</style></defs><path class="cls-1" d="M23.88,149.49h1l-.47-5.6c0-.13.91-.19,1-.21s-.27,5.81-.27,5.81.92,0,1,0,0-6,.06-6.06A5.2,5.2,0,0,0,28.86,141a5.74,5.74,0,0,0,6.83,1.78c2.82-1.19,3.35-4.85,3.17-7.78a12.67,12.67,0,0,0,4-1,5.67,5.67,0,0,0,0-10,4.16,4.16,0,0,0,2-4,4.26,4.26,0,0,0-2-3c.6-.22,4.92-1.81,5.79-6.07.62-3,.65-6.6-1.79-7.72a4.24,4.24,0,0,0-3-.21,11.52,11.52,0,0,0,.19-7.86C43,92.35,41.33,92.15,40.86,92a4.39,4.39,0,0,0,1.47-6.12A3.16,3.16,0,0,0,38.86,85,3.21,3.21,0,0,0,39,82.43c-.39-.7-1.36-.56-2.18-.47.87-.58,3.73-2,4-5,.23-2.51.9-7.23-2.14-9.95A8.89,8.89,0,0,0,31.86,65a3.68,3.68,0,0,0,1.25-3,3.6,3.6,0,0,0-3.25-3c.12-.08,2.43-2.65,2.26-4.62a2.92,2.92,0,0,0-1.28-2.55c-1.15-.83-2.5-.12-2.78-.1.85-.19,1.5-1.69,1.25-3.16a1.73,1.73,0,0,0-2.56-1c-.79-2.47.61-6.63-1.39-6.62-2.5.21-1.92,5.61-1.92,7.61-.46.08-1.1-.41-1.73.35-1,1.21-.41,3.26.16,5.75-.05-.24-2.08-.56-3,1.21a5.48,5.48,0,0,0,1,6.15,2.11,2.11,0,0,0-1.69,1.73A3.24,3.24,0,0,0,18.86,67c-1.57-.48-2.51-1-3.66.93a4.57,4.57,0,0,0-.7,4c.82,1.93,3.17,3,3.67,3.2A4,4,0,0,0,16.86,77a6.14,6.14,0,0,0-.09,2.21,4.19,4.19,0,0,0-3.67,1.09A4.1,4.1,0,0,0,11.86,85a4.44,4.44,0,0,0-5,2c-1.09,2,.27,5.84,1.38,5.6a5.51,5.51,0,0,0-4.69,4.93c-.51,4.69,1.63,6.65,4.5,7.82-1.27.57-2.26,1.42-2.19,2.65a3.09,3.09,0,0,0,1,2,3.87,3.87,0,0,0-3.66,3,4.12,4.12,0,0,0,3.66,5,7.1,7.1,0,0,0-5,6,4.77,4.77,0,0,0,1.66,4,8.66,8.66,0,0,0,6,1.53A9.43,9.43,0,0,0,7.86,133c-.6,1.88-.51,4.49,1.09,5.64,2.17,1.56,6.83,1,8.91.36a4.62,4.62,0,0,0,1.68,3.5,8.14,8.14,0,0,0,4.17,1.27C24.1,143.76,23.75,149.5,23.88,149.49Z"/></svg>