<svg id="Layer_1" data-name="Layer 1" xmlns="http://www.w3.org/2000/svg" viewBox="0 0 50 150"><defs><style>.cls-1{fill:#8ec644;stroke:#221f1f;stroke-linecap:round;stroke-linejoin:round;}</style></defs><path class="cls-1" d="M21.06,142.89a2.65,2.65,0,0,1,2-2.08c-1.47-1.09-2.66-2.08-2.54-3.64a3.82,3.82,0,0,1,1.9-2.74c-1.79-2.17-1.22-3.51-.6-3.92s2.28.41,2.51.6c-.51-4.07-.58-5.8.64-5.92,2-.19,1.83,1.92,1.4,6.13,1.47-2,2.6-3.38,3.45-2.09.36.56-.58,1.88-2.34,4.56,1.06.11,2.13.4,2.47,1.22.5,1.24-.13,2.93-2.13,4.37a2,2,0,0,1,1,2.24,1.4,1.4,0,0,1-1.17,1.15,2,2,0,0,1,.08,2.29c-.48.75-1.59.91-2.62,1v3.45l-.49,0,0-3.53C22.54,145.43,20.9,144.22,21.06,142.89Z"/></svg>