<svg id="Layer_1" data-name="Layer 1" xmlns="http://www.w3.org/2000/svg" viewBox="0 0 50 150"><defs><style>.cls-1{fill:#8ec644;stroke:#221f1f;stroke-linecap:round;stroke-linejoin:round;}</style></defs><path class="cls-1" d="M24.66,142.72v6.77l.7,0v-6.8c2.72-.05,4.26-1.66,4.25-3,0-1-1.19-1.45-1.54-1.69a4.64,4.64,0,0,0,1.09-4,4.45,4.45,0,0,0-1.92-3c1.88-.68,2.78-2,2.54-4.41-.16-1.52-1.22-2.07-2.54-2.48,1.86-1.79,2.09-3.86,1.31-4.56-.44-.41-.67-.66-2.1-.56.06-2.06.32-4.71-1.09-4.71s-1.5,2.27-1.27,5a3.32,3.32,0,0,0-1.82,2.84,6.65,6.65,0,0,0,1.78,4.63c-2,.37-4.28,2.24-4.67,4-1,4.53,1.19,5.65,3.24,5.93a2.73,2.73,0,0,0-1.38,2.68C21.34,141,22.74,141.83,24.66,142.72Z"/></svg>