<svg id="Layer_1" data-name="Layer 1" xmlns="http://www.w3.org/2000/svg" viewBox="0 0 50 150"><defs><style>.cls-1{fill:#62b148;stroke:#221f1f;stroke-linecap:round;stroke-linejoin:round;}</style></defs><path class="cls-1" d="M24.47,135.7v13.85h.83l.06-13.85a3.06,3.06,0,0,0,2.36-3.51c2.17-.57,4.06-2,4.09-3.06a2.34,2.34,0,0,0-.9-2,2.05,2.05,0,0,0,1.54-2,2,2,0,0,0-1.54-1.85c1.95-.83,3.29-2.3,3-6.25-.42-5.9-1.5-5-5.17-5.62,2.19-1,4.06-2.87,3.13-5.68-1.53-4.64-2.21-4.26-4.59-4.6a1.88,1.88,0,0,0,.44-1.91,1.9,1.9,0,0,0-1.78-1.28c2.84-1.08,3.94-3.16,2.87-4.63-.86-1.18-2.11-1-4.34-.16.19-5.93-.17-8.29-1.6-8.29-1.21,0-2,2.84-1.53,5.29-.53,0-3.05-.82-3.83,1-1.12,2.64.1,4.74,3.64,7.27-3.1.38-5.54,1.71-6.32,4.34-1.24,4.21,1.21,7,5.68,9.51a2.66,2.66,0,0,0-2.3,2,2.72,2.72,0,0,0,2.24,3.07c-1.73.09-4.6-.42-5.33,2.07-.82,2.77,1.34,4.18,3.6,5.46-1.83.64-2.74,1.81-2.71,3,0,1.54,2.27,3.32,5.46,3.51a3.56,3.56,0,0,0,1,2.93A4.85,4.85,0,0,0,24.47,135.7Z"/></svg>