<svg id="Layer_1" data-name="Layer 1" xmlns="http://www.w3.org/2000/svg" viewBox="0 0 50 150"><defs><style>.cls-1{fill:#79c047;stroke:#221f1f;stroke-linecap:round;stroke-linejoin:round;}</style></defs><path class="cls-1" d="M24.47,138.89l0,10.65h.93l0-10.65c4.09-.79,4.73-1.27,4.79-3.38a3.73,3.73,0,0,0-1.88-3.1,2.15,2.15,0,0,0,2.45-1.3,1.54,1.54,0,0,0-1.34-1.47c.26-.1,2.47-.35,2.46-2.14s-1.82-3.29-4.34-4.85c1.53-.72,2.17-2.08,2.07-4.31a4,4,0,0,0-2.68-3.57,2.52,2.52,0,0,0,.77-2.56,2.44,2.44,0,0,0-1.09-1.34c1.34-1.43,1.54-2.42,1.25-3.28-.13-.39-1.21-.68-1.95-.2-.09-3.73-.32-5.45-1.78-5.29-.94.1-1,1-.58,3.09A2.42,2.42,0,0,0,21,106.82c-.5,1.75-.58,4.59,1.72,5.65a1.73,1.73,0,0,0-2.11,1,2.67,2.67,0,0,0,.9,3c-2,.66-3.26,2.58-3.26,5.23,0,2.25,2.46,3.58,4.28,3.71a2.76,2.76,0,0,0-1.82,2.64,5.3,5.3,0,0,0,2.07,3.48c-1.87.44-3.6.7-3.67,3.16C19,137,21,138,24.47,138.89Z"/></svg>