<svg id="Layer_1" data-name="Layer 1" xmlns="http://www.w3.org/2000/svg" viewBox="0 0 50 150"><defs><style>.cls-1{fill:#5e9351;stroke:#221f1f;stroke-linecap:round;stroke-linejoin:round;}</style></defs><path class="cls-1" d="M24.32,135.7v11.53H25l-.26-11.44h.52l-.05,11.44h.43v-11.5a6.4,6.4,0,0,0,2.89-.37A6.31,6.31,0,0,0,30.66,134c2.08,1.83,3.85,1.38,6-1.87,1.66-2.55,0-6.6-2-7.57.82-.3,1.71-.42,1.74-1.66a2.78,2.78,0,0,0-1.15-2.51c3.7-1.2,6.06-4.47,6-7.41,0-4.64-2.52-6.55-5.54-7.15,2.06-1.28,3.88-2,3.15-5.91-.48-2.61-2.85-5.58-4.51-5.87,1.92-1.24,2.26-3.08,1.7-5.49-1.23-5.32-4.68-3.72-7.87-2.69,1.13-.6,1.83-1.61,1.32-2.85a2.74,2.74,0,0,0-1.57-1.44c1.66-1.41,2.18-2.94,1.61-4s-1.79-.6-3.57-.17c.3-1.7.84-6.18-1.36-5.7-1.36.3-1.51,3.73-1.13,5.39-.79-.12-3-1.35-4,.22s-1.11,4.39,1.36,7.41a4.86,4.86,0,0,0-4.3,2.68c-1.23,2.34-.38,4.77.81,6.51-3.11,1.06-4.52,2.31-5,5.87-.25,2,.43,7.7,4.6,9.28-1.24.85-2.17,1.1-2.47,2.25a3.24,3.24,0,0,0,.77,2.9c-2.22.81-4,1.57-4.47,4.64-.61,3.63.94,3.68,2.68,4.63-2.82,2.43-2,4.47-1.24,6.52,1,2.68,4.26,2.8,7.49,2a3.8,3.8,0,0,0,2.05,2.51A8.12,8.12,0,0,0,24.32,135.7Z"/></svg>