<svg id="Layer_1" data-name="Layer 1" xmlns="http://www.w3.org/2000/svg" viewBox="0 0 50 150"><defs><style>.cls-1{fill:#62b148;stroke:#221f1f;stroke-linecap:round;stroke-linejoin:round;}</style></defs><path class="cls-1" d="M25.49,135v12.32h1V135a4.17,4.17,0,0,0,2.1-.9,4,4,0,0,0,1.09-1.34,2.68,2.68,0,0,0,2-1.78c.34-1.16-.3-2.08-1.41-3.13,2.58-.07,3.66-1.4,3.77-3.13.13-2-.89-4.3-2.55-5a2.19,2.19,0,0,0,1.4-2c0-1-.81-1.53-1.6-2.49a4.5,4.5,0,0,0,3.07-5c-.36-2.53-2.24-3.47-4.41-4.66a2.13,2.13,0,0,0,1-2.13c-.19-1.1-1-1.61-2.19-2.12a2.45,2.45,0,0,0,.62-3.15,2,2,0,0,0-2.76.41c-.22-1.05-.41-5.65-2-5.65-2,0-.88,5.11-.62,6.13-1.86-.92-4.05-1.14-4.64-.08-.77,1.36.32,3.38,2.51,4.29-3.28-.38-3.85,1.32-4.17,3.24-.36,2.17,1.29,3.63,3.15,4a2.75,2.75,0,0,0-1.06,2,3,3,0,0,0,1.7,2.36c-2.38.2-3.65.16-4.09,3.71A4.78,4.78,0,0,0,21,123.91a2,2,0,0,0-.76,1.54,2,2,0,0,0,1,1.72,2.87,2.87,0,0,0-2.56,3,2.74,2.74,0,0,0,3.17,2.38,9.53,9.53,0,0,0,1.43,1.39A10,10,0,0,0,25.49,135Z"/></svg>