<svg id="Layer_1" data-name="Layer 1" xmlns="http://www.w3.org/2000/svg" viewBox="0 0 50 150"><defs><style>.cls-1{fill:#9ecb4b;stroke:#221f1f;stroke-linecap:round;stroke-linejoin:round;}</style></defs><path class="cls-1" d="M24.76,144.4l0,2.89.33,0v-2.88a3.1,3.1,0,0,0,2.55-1.25,3.46,3.46,0,0,0,.31-2.55A1.72,1.72,0,0,0,29,138.72a1.67,1.67,0,0,0-1.34-1.27c1.05-.51,2.23-2.81,1.4-3.45-1.23-.95-2,.64-2.74,1.21,0-2.52.19-4.27-1.53-4.27-2,0-1.76,4.11-1.22,5.68,0,0-2.36-.19-2.68,1.53A2.86,2.86,0,0,0,22,141.09c.16.06-.58,1.18-.16,2.13S23.66,144.4,24.76,144.4Z"/></svg>