<svg id="Layer_1" data-name="Layer 1" xmlns="http://www.w3.org/2000/svg" viewBox="0 0 50 150"><defs><style>.cls-1{fill:#71ba56;stroke:#221f1f;stroke-linecap:round;stroke-linejoin:round;}</style></defs><path class="cls-1" d="M24.64,137.79l-.11,9.49h.83l0-9.54c2-.32,3.9-.64,4.45-2.46.49-1.62-.06-3.45-1.66-5.37a4.19,4.19,0,0,0,2.36-4.21c-.26-2.14-.76-2.51-2.36-3.19a1.44,1.44,0,0,0,1.21-1.72,1.42,1.42,0,0,0-1.47-1,3.65,3.65,0,0,0-1.08-7c1.08-1,1.49-2.06.7-2.74a1.67,1.67,0,0,0-1.66,0c.19-1.7-.66-4.51-1.64-4.51-1.36,0-1.06,3.66-.91,6.87a5.46,5.46,0,0,0-3,2.74,3,3,0,0,0,1.34,3.07c-.11,0-2.79.08-2.94,3.64-.09,2.22,1.64,3.68,4,5.17-2.31,1.11-3.86,3-4,5-.08,1.85,1.7,2.53,3.39,2.87-.2.16-1,.77-.9,1.47C21.29,137.36,22.87,137.49,24.64,137.79Z"/></svg>